<svg width="80" height="40" viewBox="0 0 80 40" fill="none" xmlns="http://www.w3.org/2000/svg">
<g clip-path="url(#clip0_360_93)">
<path fill-rule="evenodd" clip-rule="evenodd" d="M16.707 5.29303C16.8945 5.48056 16.9998 5.73487 16.9998 6.00003C16.9998 6.26519 16.8945 6.5195 16.707 6.70703L8.70698 14.707C8.51945 14.8945 8.26514 14.9998 7.99998 14.9998C7.73482 14.9998 7.48051 14.8945 7.29298 14.707L3.29298 10.707C3.11082 10.5184 3.01003 10.2658 3.01231 10.0036C3.01458 9.74143 3.11975 9.49062 3.30516 9.30521C3.49057 9.1198 3.74138 9.01464 4.00358 9.01236C4.26578 9.01008 4.51838 9.11087 4.70698 9.29303L7.99998 12.586L15.293 5.29303C15.4805 5.10556 15.7348 5.00024 16 5.00024C16.2651 5.00024 16.5195 5.10556 16.707 5.29303Z" fill="white"/>
<path fill-rule="evenodd" clip-rule="evenodd" d="M25.293 7.29296C25.4806 7.10549 25.7349 7.00017 26 7.00017C26.2652 7.00017 26.5195 7.10549 26.707 7.29296L30 10.586L33.293 7.29296C33.3853 7.19745 33.4956 7.12127 33.6176 7.06886C33.7396 7.01645 33.8709 6.98886 34.0036 6.98771C34.1364 6.98655 34.2681 7.01186 34.391 7.06214C34.5139 7.11242 34.6255 7.18667 34.7194 7.28056C34.8133 7.37446 34.8876 7.48611 34.9379 7.60901C34.9881 7.7319 35.0134 7.86358 35.0123 7.99636C35.0111 8.12914 34.9835 8.26036 34.9311 8.38236C34.8787 8.50437 34.8025 8.61471 34.707 8.70696L30.707 12.707C30.5195 12.8944 30.2652 12.9997 30 12.9997C29.7349 12.9997 29.4806 12.8944 29.293 12.707L25.293 8.70696C25.1056 8.51943 25.0002 8.26512 25.0002 7.99996C25.0002 7.73479 25.1056 7.48049 25.293 7.29296Z" fill="#97AAB4"/>
<path opacity="0.5" fill-rule="evenodd" clip-rule="evenodd" d="M4.29303 24.293C4.48056 24.1055 4.73487 24.0002 5.00003 24.0002C5.26519 24.0002 5.5195 24.1055 5.70703 24.293L10 28.586L14.293 24.293C14.3853 24.1974 14.4956 24.1213 14.6176 24.0689C14.7396 24.0164 14.8709 23.9889 15.0036 23.9877C15.1364 23.9866 15.2681 24.0119 15.391 24.0621C15.5139 24.1124 15.6255 24.1867 15.7194 24.2806C15.8133 24.3745 15.8876 24.4861 15.9379 24.609C15.9881 24.7319 16.0134 24.8636 16.0123 24.9964C16.0111 25.1291 15.9835 25.2604 15.9311 25.3824C15.8787 25.5044 15.8025 25.6147 15.707 25.707L11.414 30L15.707 34.293C15.8892 34.4816 15.99 34.7342 15.9877 34.9964C15.9854 35.2586 15.8803 35.5094 15.6948 35.6948C15.5094 35.8802 15.2586 35.9854 14.9964 35.9876C14.7342 35.9899 14.4816 35.8891 14.293 35.707L10 31.414L5.70703 35.707C5.51843 35.8891 5.26583 35.9899 5.00363 35.9876C4.74143 35.9854 4.49062 35.8802 4.30521 35.6948C4.1198 35.5094 4.01463 35.2586 4.01236 34.9964C4.01008 34.7342 4.11087 34.4816 4.29303 34.293L8.58603 30L4.29303 25.707C4.10556 25.5194 4.00024 25.2651 4.00024 25C4.00024 24.7348 4.10556 24.4805 4.29303 24.293Z" fill="#1A729D"/>
<path opacity="0.5" fill-rule="evenodd" clip-rule="evenodd" d="M24.293 24.293C24.4806 24.1055 24.7349 24.0002 25 24.0002C25.2652 24.0002 25.5195 24.1055 25.707 24.293L30 28.586L34.293 24.293C34.3853 24.1974 34.4956 24.1213 34.6176 24.0689C34.7396 24.0164 34.8709 23.9889 35.0036 23.9877C35.1364 23.9866 35.2681 24.0119 35.391 24.0621C35.5139 24.1124 35.6255 24.1867 35.7194 24.2806C35.8133 24.3745 35.8876 24.4861 35.9379 24.609C35.9881 24.7319 36.0134 24.8636 36.0123 24.9964C36.0111 25.1291 35.9835 25.2604 35.9311 25.3824C35.8787 25.5044 35.8025 25.6147 35.707 25.707L31.414 30L35.707 34.293C35.8892 34.4816 35.99 34.7342 35.9877 34.9964C35.9854 35.2586 35.8803 35.5094 35.6948 35.6948C35.5094 35.8802 35.2586 35.9854 34.9964 35.9876C34.7342 35.9899 34.4816 35.8891 34.293 35.707L30 31.414L25.707 35.707C25.5184 35.8891 25.2658 35.9899 25.0036 35.9876C24.7414 35.9854 24.4906 35.8802 24.3052 35.6948C24.1198 35.5094 24.0146 35.2586 24.0124 34.9964C24.0101 34.7342 24.1109 34.4816 24.293 34.293L28.586 30L24.293 25.707C24.1056 25.5194 24.0002 25.2651 24.0002 25C24.0002 24.7348 24.1056 24.4805 24.293 24.293Z" fill="#307B2E"/>
<path opacity="0.5" fill-rule="evenodd" clip-rule="evenodd" d="M44.293 24.293C44.4806 24.1055 44.7349 24.0002 45 24.0002C45.2652 24.0002 45.5195 24.1055 45.707 24.293L50 28.586L54.293 24.293C54.3853 24.1974 54.4956 24.1213 54.6176 24.0689C54.7396 24.0164 54.8709 23.9889 55.0036 23.9877C55.1364 23.9866 55.2681 24.0119 55.391 24.0621C55.5139 24.1124 55.6255 24.1867 55.7194 24.2806C55.8133 24.3745 55.8876 24.4861 55.9379 24.609C55.9881 24.7319 56.0134 24.8636 56.0123 24.9964C56.0111 25.1291 55.9835 25.2604 55.9311 25.3824C55.8787 25.5044 55.8025 25.6147 55.707 25.707L51.414 30L55.707 34.293C55.8892 34.4816 55.99 34.7342 55.9877 34.9964C55.9854 35.2586 55.8803 35.5094 55.6948 35.6948C55.5094 35.8802 55.2586 35.9854 54.9964 35.9876C54.7342 35.9899 54.4816 35.8891 54.293 35.707L50 31.414L45.707 35.707C45.5184 35.8891 45.2658 35.9899 45.0036 35.9876C44.7414 35.9854 44.4906 35.8802 44.3052 35.6948C44.1198 35.5094 44.0146 35.2586 44.0124 34.9964C44.0101 34.7342 44.1109 34.4816 44.293 34.293L48.586 30L44.293 25.707C44.1056 25.5194 44.0002 25.2651 44.0002 25C44.0002 24.7348 44.1056 24.4805 44.293 24.293Z" fill="#956312"/>
<path opacity="0.5" fill-rule="evenodd" clip-rule="evenodd" d="M64.293 24.293C64.4806 24.1055 64.7349 24.0002 65 24.0002C65.2652 24.0002 65.5195 24.1055 65.707 24.293L70 28.586L74.293 24.293C74.3853 24.1974 74.4956 24.1213 74.6176 24.0689C74.7396 24.0164 74.8709 23.9889 75.0036 23.9877C75.1364 23.9866 75.2681 24.0119 75.391 24.0621C75.5139 24.1124 75.6255 24.1867 75.7194 24.2806C75.8133 24.3745 75.8876 24.4861 75.9379 24.609C75.9881 24.7319 76.0134 24.8636 76.0123 24.9964C76.0111 25.1291 75.9835 25.2604 75.9311 25.3824C75.8787 25.5044 75.8025 25.6147 75.707 25.707L71.414 30L75.707 34.293C75.8892 34.4816 75.99 34.7342 75.9877 34.9964C75.9854 35.2586 75.8803 35.5094 75.6948 35.6948C75.5094 35.8802 75.2586 35.9854 74.9964 35.9876C74.7342 35.9899 74.4816 35.8891 74.293 35.707L70 31.414L65.707 35.707C65.5184 35.8891 65.2658 35.9899 65.0036 35.9876C64.7414 35.9854 64.4906 35.8802 64.3052 35.6948C64.1198 35.5094 64.0146 35.2586 64.0124 34.9964C64.0101 34.7342 64.1109 34.4816 64.293 34.293L68.586 30L64.293 25.707C64.1056 25.5194 64.0002 25.2651 64.0002 25C64.0002 24.7348 64.1056 24.4805 64.293 24.293Z" fill="#B53D2D"/>
<path fill-rule="evenodd" clip-rule="evenodd" d="M44.293 4.29296C44.4806 4.10549 44.7349 4.00017 45 4.00017C45.2652 4.00017 45.5195 4.10549 45.707 4.29296L50 8.58596L54.293 4.29296C54.3853 4.19745 54.4956 4.12127 54.6176 4.06886C54.7396 4.01645 54.8709 3.98886 55.0036 3.98771C55.1364 3.98655 55.2681 4.01186 55.391 4.06214C55.5139 4.11242 55.6255 4.18667 55.7194 4.28056C55.8133 4.37446 55.8876 4.48611 55.9379 4.60901C55.9881 4.7319 56.0134 4.86358 56.0123 4.99636C56.0111 5.12914 55.9835 5.26036 55.9311 5.38236C55.8787 5.50437 55.8025 5.61471 55.707 5.70696L51.414 9.99996L55.707 14.293C55.8892 14.4816 55.99 14.7342 55.9877 14.9964C55.9854 15.2586 55.8803 15.5094 55.6948 15.6948C55.5094 15.8802 55.2586 15.9854 54.9964 15.9876C54.7342 15.9899 54.4816 15.8891 54.293 15.707L50 11.414L45.707 15.707C45.5184 15.8891 45.2658 15.9899 45.0036 15.9876C44.7414 15.9854 44.4906 15.8802 44.3052 15.6948C44.1198 15.5094 44.0146 15.2586 44.0124 14.9964C44.0101 14.7342 44.1109 14.4816 44.293 14.293L48.586 9.99996L44.293 5.70696C44.1056 5.51943 44.0002 5.26512 44.0002 4.99996C44.0002 4.73479 44.1056 4.48049 44.293 4.29296Z" fill="white"/>
</g>
<defs>
<clipPath id="clip0_360_93">
<rect width="80" height="40" fill="white"/>
</clipPath>
</defs>
</svg>
