<svg width="72" height="72" viewBox="0 0 72 72" fill="none" xmlns="http://www.w3.org/2000/svg">
<g clip-path="url(#clip0_107_11)">
<circle cx="12" cy="12" r="11.5" fill="#FAFAFA" stroke="#D9D9D9"/>
<circle cx="36" cy="12" r="11.5" fill="#FAFAFA" stroke="#898989"/>
<circle cx="60" cy="12" r="11.5" fill="#FAFAFA" stroke="#898989"/>
<circle cx="60" cy="12" r="7" fill="#898989"/>
<rect x="0.5" y="24.5" width="23" height="23" fill="#FAFAFA" stroke="#D9D9D9"/>
<rect x="24.5" y="24.5" width="23" height="23" fill="#FAFAFA" stroke="#898989"/>
<rect x="48.5" y="24.5" width="23" height="23" fill="#898989" stroke="#898989"/>
<path d="M68.9354 32.1768C69.5228 31.5913 69.5228 30.64 68.9354 30.0545V30.0545C68.3507 29.4716 67.4045 29.4716 66.8198 30.0545L57.0747 39.7686L53.1802 35.8865C52.5954 35.3036 51.6493 35.3036 51.0646 35.8865V35.8865C50.4772 36.472 50.4772 37.4233 51.0645 38.0089L55.6627 42.5925C56.4432 43.3706 57.7061 43.3706 58.4866 42.5925L68.9354 32.1768Z" fill="white"/>
<path d="M12 65L19 55H5L12 65Z" fill="#898989"/>
<path d="M32 54C31.4477 53.4477 30.5523 53.4477 30 54V54C29.4477 54.5523 29.4477 55.4477 30 56L34 60L30 64C29.4477 64.5523 29.4477 65.4477 30 66V66C30.5523 66.5523 31.4477 66.5523 32 66L36 62L40 66C40.5523 66.5523 41.4477 66.5523 42 66V66C42.5523 65.4477 42.5523 64.5523 42 64L38 60L42 56C42.5523 55.4477 42.5523 54.5523 42 54V54C41.4477 53.4477 40.5523 53.4477 40 54L36 58L32 54Z" fill="white"/>
<path d="M56 54C55.4477 53.4477 54.5523 53.4477 54 54V54C53.4477 54.5523 53.4477 55.4477 54 56L58 60L54 64C53.4477 64.5523 53.4477 65.4477 54 66V66C54.5523 66.5523 55.4477 66.5523 56 66L60 62L64 66C64.5523 66.5523 65.4477 66.5523 66 66V66C66.5523 65.4477 66.5523 64.5523 66 64L62 60L66 56C66.5523 55.4477 66.5523 54.5523 66 54V54C65.4477 53.4477 64.5523 53.4477 64 54L60 58L56 54Z" fill="#898989"/>
</g>
<defs>
<clipPath id="clip0_107_11">
<rect width="72" height="72" fill="white"/>
</clipPath>
</defs>
</svg>
