<svg width="96" height="24" viewBox="0 0 96 24" fill="none" xmlns="http://www.w3.org/2000/svg">
<g clip-path="url(#clip0_51_13)">
<path d="M8 6C7.44772 5.44772 6.55228 5.44772 6 6C5.44772 6.55229 5.44772 7.44772 6 8L10 12L6 16C5.44772 16.5523 5.44772 17.4477 6 18C6.55229 18.5523 7.44772 18.5523 8 18L12 14L16 18C16.5523 18.5523 17.4477 18.5523 18 18C18.5523 17.4477 18.5523 16.5523 18 16L14 12L18 8C18.5523 7.44772 18.5523 6.55228 18 6C17.4477 5.44772 16.5523 5.44772 16 6L12 10L8 6Z" fill="#DC5A5A"/>
<path d="M44.9354 8.17684C45.5228 7.59131 45.5228 6.63999 44.9354 6.05446C44.3507 5.47156 43.4046 5.47156 42.8198 6.05446L33.0747 15.7686L29.1802 11.8865C28.5954 11.3036 27.6493 11.3036 27.0646 11.8865C26.4772 12.472 26.4772 13.4233 27.0645 14.0089L31.6627 18.5925C32.4432 19.3706 33.7061 19.3706 34.4866 18.5925L44.9354 8.17684Z" fill="#67A749"/>
<path d="M58.4962 9.3359C58.8247 9.11688 59.2107 9 59.6056 9H60C61.1046 9 62 9.89543 62 11V21H61C59.8954 21 59 20.1046 59 19V12H56.6514C56.2916 12 56 11.7084 56 11.3486C56 11.1308 56.1088 10.9274 56.2901 10.8066L58.4962 9.3359Z" fill="#3896DA"/>
<circle cx="60" cy="5" r="2" fill="#3896DA"/>
<path d="M90.7639 21H77.2361C76.4785 21 75.786 20.572 75.4472 19.8944C75.1657 19.3314 75.1657 18.6686 75.4472 18.1056L82.5528 3.89443C82.8269 3.34626 83.3871 3 84 3C84.6129 3 85.1731 3.34626 85.4472 3.89443L92.5528 18.1056C92.8343 18.6686 92.8343 19.3314 92.5528 19.8944C92.214 20.572 91.5215 21 90.7639 21Z" fill="#ECD928"/>
<path d="M86 11V10.2361C86 9.47852 85.572 8.786 84.8944 8.44721C84.3314 8.16569 83.6686 8.16569 83.1056 8.44721C82.428 8.786 82 9.47852 82 10.2361V11L83 14V15L84 16L85 15V14L86 11Z" fill="#7E7525"/>
<circle cx="84" cy="18" r="1" fill="#7E7525"/>
</g>
<defs>
<clipPath id="clip0_51_13">
<rect width="96" height="24" fill="white"/>
</clipPath>
</defs>
</svg>
